# xmcd
#
# Track frame offsets:
#	150
#	16627
#	30290
#	51923
#	66602
#	82703
#	103480
#	115070
#	131797
#	151095
#	167934
#
# Disc length: 2444 seconds
# Revision: 3
# Processed by: cddbd v1.5.2PL0 Copyright (c) Steve Scherf et al.
# Submitted via: dBpowerAMP V12.0
#
DISCID=87098a0b
DTITLE=Christina Skjolberg - Come and Get It
DYEAR=2014
DGENRE=Blues Female
TTITLE0=Come and Get It
TTITLE1=Runaway
TTITLE2=Close the Door
TTITLE3=Bullet
TTITLE4=Get on
TTITLE5=Moving on
TTITLE6=Inspiration
TTITLE7=Hush
TTITLE8=I'm Back
TTITLE9=Mrs Funk
TTITLE10=Nag Blues
EXTD=
EXTT0=
EXTT1=
EXTT2=
EXTT3=
EXTT4=
EXTT5=
EXTT6=
EXTT7=
EXTT8=
EXTT9=
EXTT10=
PLAYORDER=
